<svg xmlns="http://www.w3.org/2000/svg" xmlns:xlink="http://www.w3.org/1999/xlink" xmlns:inkscape="http://www.inkscape.org/namespaces/inkscape" version="1.1" width="1000" height="1000" viewBox="0 0 1000 1000">
<defs>
<clipPath id="clip_0">
<path transform="matrix(1,0,0,-1,0,1000)" d="M0 1000H1000V0H0Z"/>
</clipPath>
</defs>
<g inkscape:groupmode="layer" inkscape:label="Layer 1">
<g clip-path="url(#clip_0)">
<path transform="matrix(1,0,0,-1,579.4502,529.95999)" d="M0 0-65.46-.28-64.48-231.44C-62.07-238.11-57.37-247.84-48.24-256.86-43.19-261.85-37.92-265.5-33-268.18L45.92-267.85 45.97-281.14C45.97-281.14-105.23-281.271-222.6-281.55L-222.66-268.98-142.87-268.64C-136.93-265.87-130.18-261.69-123.79-255.38-115.26-246.94-110.59-237.88-108.04-231.29-107.44-198.48-107.26-171.75-107.22-152.89-106.99-61.14-109.44-10.31-81.8 4.27-75.55 7.57-69.38 8.16-65.49 8.21L-28.52 8.37C-15.68 20.55 42.42 78.35 47.04 172 51.14 254.82 10.79 312.81-1.18 328.82-24.93 325.2-53.95 322.88-86.87 324.73-105.38 325.77-122.34 327.98-137.54 330.74-138.49 328.36-139.34 325.63-139.92 322.58-141.46 314.43-140.33 307.72-139.44 304.04-142.97 304.17-146.51 304.31-150.05 304.44-152.24 313.02-152.5 320.1-152.36 324.85-152.17 331.14-151.87 338.64-147.82 340.47-146.98 340.85-145.33 340.83-142.34 340.57V340.86C-139.46 340.43-136.52 340.02-133.53 339.62-133.28 339.59-133.04 339.56-132.81 339.53-119.09 337.76-104.29 336.45-88.52 335.9-54 334.7-23.31 337.41 2.41 341.47 175.51 338.51 180.57 6.01 0 0"/>
<path transform="matrix(1,0,0,-1,327.814,343.8994)" d="M0 0C2.497 0 4.607 .492 6.319 1.48 8.031 2.471 9.434 3.887 10.541 5.73 11.635 7.578 12.42 9.807 12.909 12.42 13.398 15.033 13.629 17.967 13.629 21.217 13.629 23.984 13.54 26.642 13.333 29.19 13.141 31.738 12.651 33.978 11.892 35.912 11.12 37.845 9.961 39.393 8.43 40.558 6.885 41.723 4.788 42.305 2.098 42.305 .077 42.305-1.57 41.964-2.845 41.282-4.119 40.6-5.123 39.689-5.869 38.547-6.616 37.404-7.13 36.098-7.42 34.627-7.709 33.154-7.851 31.629-7.851 30.046V8.301C-7.851 5.402-7.13 3.295-5.702 1.976-4.28 .656-2.381 0 0 0M34.325 33.54C35.251 31.562 35.934 29.431 36.372 27.147 36.809 24.862 36.989 22.568 36.925 20.261 36.86 17.954 36.564 15.692 36.037 13.475 35.509 11.255 34.724 9.18 33.668 7.246 32.523 5.139 31.004 3.305 29.125 1.744 27.233 .184 25.148-1.11 22.857-2.143 20.58-3.176 18.199-3.935 15.74-4.418 13.282-4.9 10.927-5.142 8.688-5.142 7.593-5.142 6.409-5.119 5.135-5.074 3.861-5.032 2.548-4.923 1.209-4.746-.129-4.572-1.493-4.318-2.87-3.987-4.26-3.658-5.612-3.188-6.924-2.571-7.323-2.397-7.574-2.384-7.684-2.539-7.793-2.693-7.851-2.834-7.851-2.967V-30.38C-7.851-32.446-7.414-34.113-6.525-35.387-5.65-36.661-4.633-37.671-3.462-38.418-2.304-39.167-1.146-39.683 0-39.969 1.132-40.255 1.969-40.438 2.497-40.529 2.896-40.616 3.192-40.77 3.385-40.989 3.591-41.208 3.668-41.439 3.655-41.681 3.629-41.922 3.514-42.141 3.294-42.34 3.063-42.537 2.741-42.636 2.304-42.636H-39.744C-40.181-42.636-40.51-42.537-40.735-42.34-40.954-42.141-41.069-41.922-41.095-41.681-41.114-41.439-41.031-41.208-40.832-40.989-40.632-40.77-40.336-40.616-39.943-40.529-39.416-40.438-38.579-40.255-37.44-39.969-36.294-39.683-35.143-39.167-33.978-38.418-32.813-37.671-31.79-36.661-30.915-35.387-30.033-34.113-29.596-32.446-29.596-30.38V34.068C-29.596 36.088-30.033 37.746-30.915 39.042-31.79 40.339-32.813 41.349-33.978 42.073-35.143 42.797-36.294 43.315-37.44 43.621-38.579 43.93-39.416 44.126-39.943 44.216-40.336 44.258-40.632 44.403-40.832 44.644-41.031 44.885-41.114 45.126-41.095 45.368-41.069 45.609-40.954 45.828-40.735 46.027-40.51 46.224-40.181 46.324-39.744 46.324H-7.851 3.089C5.599 46.324 8.069 46.301 10.502 46.259 12.947 46.214 15.315 45.973 17.619 45.532 19.923 45.094 22.163 44.367 24.338 43.357 26.513 42.347 28.611 40.899 30.631 39.01 31.378 38.26 32.073 37.404 32.716 36.439 33.347 35.474 33.887 34.505 34.325 33.54"/>
<path transform="matrix(1,0,0,-1,392.9507,322.35108)" d="M0 0C.219-.264 .573-.287 1.055-.068 2.812 .724 4.833 1.744 7.117 2.996 9.402 4.247 11.654 5.634 13.868 7.149 16.088 8.665 18.141 10.245 20.033 11.892 21.918 13.54 23.347 15.132 24.312 16.67 24.756 17.372 25.129 18.186 25.438 19.109 25.741 20.029 25.882 20.92 25.863 21.776 25.844 22.632 25.625 23.434 25.207 24.183 24.788 24.93 24.119 25.499 23.192 25.895 22.317 26.291 21.468 26.455 20.657 26.391 19.846 26.323 19.074 26.114 18.353 25.763 17.626 25.412 16.957 24.939 16.339 24.347 15.728 23.755 15.174 23.128 14.691 22.468 14.608 22.381 14.222 21.844 13.54 20.853 12.857 19.865 12.027 18.646 11.036 17.198 10.052 15.747 8.971 14.167 7.806 12.452 6.641 10.74 5.534 9.103 4.479 7.542 3.423 5.984 2.49 4.611 1.68 3.423 .869 2.239 .328 1.448 .064 1.052-.2 .614-.219 .26 0 0M46.887-62.701C47.041-62.901 47.092-63.11 47.047-63.329 47.002-63.547 46.887-63.747 46.687-63.921 46.488-64.098 46.217-64.185 45.863-64.185H22.008C21.525-64.185 21.14-64.075 20.856-63.856 20.567-63.634 20.425-63.284 20.425-62.801V-58.914C18.584-60.758 16.185-62.373 13.244-63.757 10.303-65.14 6.654-65.832 2.304-65.832-1.3-65.832-4.318-65.436-6.757-64.645-9.196-63.856-11.217-62.801-12.819-61.482-14.421-60.166-15.65-58.65-16.506-56.936-17.362-55.224-17.98-53.444-18.353-51.597-18.727-49.754-18.945-47.919-19.01-46.095-19.081-44.274-19.112-42.572-19.112-40.989V-15.223C-19.112-13.466-19.46-12.05-20.168-10.972-20.869-9.897-21.667-9.061-22.568-8.469-23.469-7.877-24.351-7.471-25.207-7.25-26.062-7.031-26.667-6.876-27.015-6.789-27.369-6.744-27.62-6.616-27.774-6.394-27.929-6.175-27.987-5.956-27.941-5.734-27.896-5.515-27.774-5.319-27.581-5.142-27.382-4.968-27.105-4.878-26.757-4.878H-2.902C-1.847-4.878-1.319-5.451-1.319-6.59V-45.14C-1.274-46.9-1.113-48.656-.824-50.413-.541-52.17-.013-53.763 .759-55.188 1.525-56.617 2.6-57.772 3.983-58.65 5.367-59.529 7.227-59.966 9.556-59.966 12.014-59.966 13.958-59.452 15.386-58.418 16.815-57.386 17.902-56.08 18.649-54.497 19.396-52.917 19.878-51.169 20.097-49.258 20.316-47.347 20.425-45.513 20.425-43.756V-15.223C20.425-13.466 20.078-12.05 19.37-10.972 18.668-9.897 17.871-9.061 16.969-8.469 16.068-7.877 15.187-7.471 14.331-7.25 13.475-7.031 12.87-6.876 12.523-6.789 12.169-6.744 11.918-6.616 11.763-6.394 11.609-6.175 11.551-5.956 11.596-5.734 11.641-5.515 11.763-5.319 11.957-5.142 12.156-4.968 12.433-4.878 12.78-4.878H36.635C37.691-4.878 38.218-5.451 38.218-6.59V-53.84C38.218-55.597 38.572-57.013 39.274-58.09 39.975-59.165 40.78-60.001 41.681-60.594 42.582-61.186 43.457-61.604 44.313-61.845 45.168-62.087 45.773-62.231 46.127-62.273 46.475-62.363 46.732-62.505 46.887-62.701"/>
<path transform="matrix(1,0,0,-1,480.1147,376.9795)" d="M0 0C.792 .393 1.364 .351 1.718-.132 2.066-.618 2.085-1.123 1.783-1.647 .991-3.057-.006-4.34-1.216-5.502-2.426-6.667-3.796-7.677-5.334-8.536-6.873-9.392-8.552-10.052-10.38-10.512-12.201-10.972-14.125-11.204-16.146-11.204-18.34-11.204-20.515-10.917-22.665-10.348-24.82-9.775-26.751-8.755-28.462-7.281-30.181-5.811-31.571-3.813-32.652-1.287-33.727 1.239-34.267 4.457-34.267 8.369V45.4C-34.267 45.751-34.441 45.928-34.788 45.928H-36.506C-37.562 45.928-38.206 45.996-38.45 46.127-38.688 46.259-38.81 46.542-38.81 46.983-38.81 47.553-38.559 48.158-38.051 48.795-37.549 49.432-36.925 49.75-36.172 49.75H-34.724C-34.421 49.75-34.267 49.924-34.267 50.278V66.028C-34.267 66.994-33.868 67.543-33.077 67.676-31.982 67.895-30.805 68.19-29.55 68.563-28.302 68.937-27.027 69.377-25.728 69.883-24.434 70.385-23.16 70.935-21.912 71.53-20.657 72.122-19.505 72.75-18.449 73.406-17.967 73.67-17.516 73.715-17.098 73.538-16.68 73.364-16.474 72.923-16.474 72.222V50.21C-16.474 49.905-16.3 49.75-15.946 49.75H-3.559C-2.503 49.75-1.853 49.686-1.615 49.554-1.371 49.422-1.248 49.136-1.248 48.695-1.248 48.125-1.557 47.521-2.175 46.883-2.786 46.247-3.468 45.928-4.215 45.928H-16.01C-16.319 45.928-16.474 45.773-16.474 45.468V4.942C-16.474 3.755-16.261 2.709-15.843 1.812-15.431 .911-14.878 .142-14.196-.496-13.52-1.132-12.729-1.605-11.828-1.911-10.927-2.22-10.013-2.375-9.093-2.375-7.201-2.375-5.444-2.101-3.822-1.551-2.194-1-.92-.486 0 0"/>
<path transform="matrix(1,0,0,-1,501.5054,347.26173)" d="M0 0C-.09-.573 .174-.856 .785-.856 .92-.856 1.358-.846 2.104-.824 2.851-.801 3.765-.769 4.839-.724 5.914-.682 7.072-.637 8.301-.592 9.531-.55 10.708-.505 11.828-.46 12.948-.418 13.913-.386 14.724-.364 15.535-.341 16.056-.309 16.274-.264 16.976-.219 17.709 .087 18.482 .66 19.248 1.229 19.634 2.217 19.634 3.623 19.634 4.897 19.46 6.371 19.106 8.041 18.752 9.708 18.192 11.291 17.427 12.783 16.661 14.276 15.683 15.541 14.492 16.574 13.308 17.604 11.86 18.122 10.148 18.122 8.784 18.122 7.6 17.758 6.59 17.034 5.573 16.31 4.71 15.364 3.983 14.202 3.256 13.038 2.658 11.75 2.169 10.344 1.686 8.938 1.293 7.568 .985 6.226 .676 4.888 .444 3.658 .296 2.539 .142 1.416 .039 .569 0 0M.721-4.35C.02-4.35-.334-4.724-.334-5.47-.334-9.949 .064-13.794 .856-17.002 1.647-20.209 2.799-22.832 4.312-24.875 5.831-26.918 7.716-28.424 9.981-29.39 12.24-30.355 14.865-30.841 17.858-30.841 20.136-30.841 22.169-30.599 23.952-30.113 25.728-29.631 27.279-29.071 28.598-28.434 29.917-27.797 30.992-27.192 31.822-26.623 32.659-26.053 33.276-25.676 33.669-25.502 34.287-25.239 34.77-25.293 35.117-25.667 35.471-26.04 35.471-26.6 35.117-27.346 34.988-27.61 34.692-28.128 34.229-28.894 33.772-29.663 33.096-30.554 32.221-31.564 31.339-32.575 30.246-33.63 28.926-34.728 27.607-35.825 26.037-36.835 24.216-37.758 22.388-38.682 20.303-39.438 17.954-40.033 15.605-40.625 12.98-40.921 10.078-40.921 5.689-40.921 1.712-40.229-1.847-38.846-5.405-37.462-8.449-35.451-10.972-32.816-13.501-30.181-15.457-26.973-16.841-23.196-18.224-19.418-18.913-15.155-18.913-10.412-18.913-5.229-18.057-.637-16.345 3.362-14.633 7.358-12.394 10.708-9.621 13.411-6.854 16.11-3.713 18.167-.199 19.572 3.314 20.976 6.892 21.68 10.541 21.68 13.964 21.68 16.989 21.207 19.602 20.264 22.214 19.318 24.479 18.089 26.391 16.574 28.302 15.058 29.878 13.366 31.133 11.5 32.388 9.63 33.392 7.777 34.165 5.93 34.93 4.086 35.471 2.349 35.78 .724 36.088-.901 36.243-2.198 36.243-3.163 36.243-3.604 36.095-3.909 35.812-4.086 35.529-4.26 35.143-4.35 34.66-4.35Z"/>
<path transform="matrix(1,0,0,-1,571.668,329.2046)" d="M0 0C-1.757 0-3.372-.605-4.846-1.815-6.319-3.021-7.581-4.724-8.636-6.921-9.685-9.119-10.502-11.764-11.068-14.862-11.641-17.958-11.931-21.375-11.931-25.107-11.931-28.888-11.455-32.256-10.508-35.223-9.569-38.189-8.263-40.703-6.589-42.768-4.923-44.834-2.966-46.414-.727-47.511 1.512-48.611 3.932-49.158 6.525-49.158 9.029-49.158 11.32-48.789 13.411-48.039 15.496-47.292 17.343-46.459 18.945-45.535 20.548-44.612 21.867-43.733 22.896-42.9 23.933-42.067 24.647-41.562 25.04-41.385 25.657-41.121 26.146-41.175 26.52-41.549 26.893-41.922 26.886-42.482 26.487-43.229 26.224-43.714 25.786-44.438 25.174-45.403 24.557-46.372 23.733-47.437 22.704-48.599 21.667-49.763 20.425-50.96 18.978-52.192 17.529-53.422 15.85-54.542 13.938-55.552 12.027-56.562 9.872-57.386 7.478-58.023 5.084-58.66 2.413-58.979-.527-58.979-5.097-58.979-9.202-58.319-12.851-57.003-16.5-55.684-19.614-53.75-22.208-51.202-24.801-48.656-26.79-45.526-28.173-41.813-29.557-38.1-30.245-33.872-30.245-29.129-30.245-24.956-29.717-21.243-28.668-17.99-27.613-14.74-26.217-11.908-24.479-9.492-22.748-7.076-20.76-5.032-18.521-3.362-16.274-1.692-13.983-.341-11.635 .692-9.279 1.721-6.963 2.471-4.678 2.931-2.394 3.391-.328 3.623 1.512 3.623 4.505 3.623 7.246 3.35 9.75 2.799 12.253 2.249 14.409 1.48 16.21 .492 18.012-.496 19.415-1.66 20.425-2.999 21.436-4.341 21.944-5.779 21.944-7.317 21.944-8.678 21.712-9.82 21.249-10.744 20.792-11.664 20.194-12.423 19.473-13.015 18.746-13.61 17.935-14.039 17.034-14.302 16.133-14.563 15.219-14.695 14.299-14.695 12.98-14.695 11.738-14.457 10.573-13.971 9.408-13.488 8.456-12.677 7.709-11.532 7.137-10.699 6.673-9.621 6.326-8.305 5.972-6.985 5.566-5.711 5.103-4.482 4.646-3.253 4.042-2.198 3.295-1.319 2.548-.441 1.448 0 0 0"/>
</g>
</g>
</svg>
